# Blender 4.2.1 LTS
# www.blender.org
mtllib PowerBlock1.mtl
o Cylinder.002
v -0.029612 0.472034 -0.406983
v 0.039389 0.472034 -0.400187
v 0.105738 0.472034 -0.380060
v 0.166886 0.472034 -0.347376
v 0.220482 0.472034 -0.303391
v 0.264468 0.472034 -0.249794
v 0.297152 0.472034 -0.188646
v 0.317279 0.472034 -0.122297
v 0.324075 0.472034 -0.053296
v 0.317279 0.472034 0.015705
v 0.297152 0.472034 0.082055
v 0.264468 0.472034 0.143202
v 0.220482 0.472034 0.196799
v 0.166886 0.472034 0.240785
v 0.105738 0.472034 0.273469
v 0.039389 0.472034 0.293596
v -0.029612 0.472034 0.300392
v -0.098613 0.472034 0.293596
v -0.164963 0.472034 0.273469
v -0.226111 0.472034 0.240785
v -0.279707 0.472034 0.196799
v -0.323693 0.472034 0.143202
v -0.356377 0.472034 0.082055
v -0.376504 0.472034 0.015705
v -0.383300 0.472034 -0.053296
v -0.376504 0.472034 -0.122297
v -0.356377 0.472034 -0.188646
v -0.323693 0.472034 -0.249794
v -0.279707 0.472034 -0.303391
v -0.226111 0.472034 -0.347376
v -0.164963 0.472034 -0.380060
v -0.098613 0.472034 -0.400187
v -0.029612 -0.204782 -0.406983
v 0.039389 -0.204782 -0.400187
v 0.105738 -0.204782 -0.380060
v 0.166886 -0.204782 -0.347376
v 0.220482 -0.204782 -0.303391
v 0.264468 -0.204782 -0.249794
v 0.297152 -0.204782 -0.188646
v 0.317279 -0.204782 -0.122297
v 0.324075 -0.204782 -0.053296
v 0.317279 -0.204782 0.015705
v 0.297152 -0.204782 0.082055
v 0.264468 -0.204782 0.143202
v 0.220482 -0.204782 0.196799
v 0.166886 -0.204782 0.240785
v 0.105738 -0.204782 0.273469
v 0.039389 -0.204782 0.293596
v -0.029612 -0.204782 0.300392
v -0.098613 -0.204782 0.293596
v -0.164963 -0.204782 0.273469
v -0.226111 -0.204782 0.240785
v -0.279707 -0.204782 0.196799
v -0.323693 -0.204782 0.143202
v -0.356377 -0.204782 0.082055
v -0.376504 -0.204782 0.015705
v -0.383300 -0.204782 -0.053296
v -0.376504 -0.204782 -0.122297
v -0.356377 -0.204782 -0.188646
v -0.323693 -0.204782 -0.249794
v -0.279707 -0.204782 -0.303391
v -0.226111 -0.204782 -0.347376
v -0.164963 -0.204782 -0.380060
v -0.098613 -0.204782 -0.400187
v 0.440432 0.656351 -0.166421
v 0.413252 0.656351 -0.256021
v -0.365754 0.656351 0.264495
v 0.449610 0.656351 -0.073240
v 0.440432 0.656351 0.019941
v 0.413253 0.656351 0.109541
v -0.505649 0.656351 -0.073240
v -0.496471 0.656351 -0.166421
v -0.469291 0.656351 -0.256021
v -0.425154 0.656351 -0.338597
v 0.065161 0.656351 -0.541692
v -0.028019 0.656351 -0.550869
v -0.365754 0.656351 -0.410975
v 0.154761 0.656351 -0.514512
v -0.293376 0.656351 -0.470374
v 0.237337 0.656351 -0.470374
v -0.210800 0.656351 -0.514512
v 0.309715 0.656351 -0.410975
v -0.121200 0.656351 -0.541692
v 0.369115 0.656351 -0.338597
v -0.293376 0.656351 0.323894
v 0.440432 0.625610 -0.166421
v 0.449610 0.625610 -0.073240
v 0.440432 0.625610 0.019941
v 0.413253 0.625610 0.109541
v -0.505649 0.625610 -0.073240
v -0.496471 0.625610 -0.166421
v -0.469291 0.625610 -0.256021
v -0.425154 0.625610 -0.338597
v 0.065161 0.625610 -0.541692
v -0.365754 0.625610 -0.410975
v 0.154761 0.625610 -0.514512
v -0.293376 0.625610 -0.470374
v 0.237337 0.625610 -0.470374
v -0.210800 0.625610 -0.514512
v 0.309715 0.625610 -0.410975
v -0.121200 0.625610 -0.541692
v 0.369115 0.625610 -0.338597
v -0.293376 0.625610 0.323894
v 0.413252 0.625610 -0.256021
v -0.365754 0.625610 0.264495
v -0.028019 0.625610 -0.550869
v -0.026927 -0.223783 0.444218
v -0.130275 -0.223783 0.434039
v -0.229651 -0.223783 0.403894
v -0.321237 -0.223783 0.354940
v -0.026927 -0.245991 0.444218
v -0.130275 -0.245991 0.434039
v -0.229651 -0.245991 0.403894
v -0.321237 -0.245991 0.354940
v 0.243517 -0.781955 -0.462062
v -0.217747 -0.781955 -0.507493
v -0.217747 -0.781955 0.400901
v -0.125522 -0.781955 0.428877
v -0.302741 -0.781955 0.355470
v -0.377239 -0.781955 0.294331
v -0.438378 -0.781955 0.219833
v -0.483809 -0.781955 0.134839
v 0.452560 -0.781955 0.042614
v -0.511785 -0.781955 0.042614
v 0.424584 -0.781955 0.134839
v -0.521231 -0.781955 -0.053296
v 0.379154 -0.781955 0.219833
v -0.511785 -0.781955 -0.149206
v 0.318015 -0.781955 0.294331
v -0.483809 -0.781955 -0.241430
v 0.243517 -0.781955 0.355470
v 0.158522 -0.781955 0.400901
v 0.158522 -0.781955 -0.507492
v -0.302741 -0.781955 -0.462062
v -0.029612 -0.781955 0.438323
v -0.206345 -0.804928 0.373375
v -0.286189 -0.804928 0.330698
v -0.356172 -0.804928 0.273264
v -0.413606 -0.804928 0.203281
v -0.456283 -0.804928 0.123437
v 0.423339 -0.804928 0.036802
v -0.482564 -0.804928 0.036802
v 0.397059 -0.804928 0.123437
v -0.491438 -0.804928 -0.053296
v 0.354382 -0.804928 0.203281
v -0.482564 -0.804928 -0.143394
v 0.296948 -0.804928 0.273264
v -0.456283 -0.804928 -0.230029
v 0.226964 -0.804928 0.330698
v 0.147121 -0.804928 0.373375
v 0.147121 -0.804928 -0.479967
v -0.286189 -0.804928 -0.437290
v -0.029612 -0.804928 0.408530
v 0.226964 -0.804928 -0.437290
v -0.206345 -0.804928 -0.479967
v -0.119710 -0.804928 0.399656
vn 0.8819 -0.0000 0.4714
vn -0.9952 -0.0000 -0.0980
vn 0.7730 -0.0000 0.6344
vn -0.9569 -0.0000 -0.2903
vn 0.6344 -0.0000 0.7730
vn -0.8819 -0.0000 -0.4714
vn 0.4714 -0.0000 0.8819
vn 0.0980 -0.0000 -0.9952
vn -0.7730 -0.0000 -0.6344
vn 0.2903 -0.0000 0.9569
vn 0.2903 -0.0000 -0.9569
vn -0.6344 -0.0000 -0.7730
vn 0.0980 -0.0000 0.9952
vn 0.4714 -0.0000 -0.8819
vn -0.4714 -0.0000 -0.8819
vn -0.0980 -0.0000 0.9952
vn 0.6344 -0.0000 -0.7730
vn -0.2903 -0.0000 -0.9569
vn -0.2903 -0.0000 0.9569
vn 0.7730 -0.0000 -0.6344
vn -0.0980 -0.0000 -0.9952
vn -0.4714 -0.0000 0.8819
vn 0.8819 -0.0000 -0.4714
vn -0.6344 -0.0000 0.7730
vn 0.9569 -0.0000 -0.2903
vn -0.7730 -0.0000 0.6344
vn 0.9952 -0.0000 -0.0980
vn -0.8819 -0.0000 0.4714
vn 0.9952 -0.0000 0.0980
vn -0.9569 -0.0000 0.2903
vn 0.9569 -0.0000 0.2903
vn -0.9952 -0.0000 0.0980
vn -0.0600 -0.7905 0.6095
vn -0.2887 -0.7905 -0.5401
vn 0.2887 -0.7905 -0.5401
vn 0.2887 -0.7905 0.5401
vn 0.3885 -0.7905 0.4734
vn -0.5861 -0.7905 -0.1778
vn 0.4734 -0.7905 0.3885
vn 0.5401 -0.7905 0.2887
vn -0.6095 -0.7905 0.0600
vn 0.5861 -0.7905 0.1778
vn -0.5401 -0.7905 0.2887
vn -0.4734 -0.7905 0.3885
vn -0.3885 -0.7905 0.4734
vn -0.1778 -0.7905 0.5861
vt 0.687500 0.500000
vt 0.656250 0.500000
vt 0.250000 0.500000
vt 0.218750 0.500000
vt 0.625000 0.500000
vt 0.187500 0.500000
vt 0.593750 0.500000
vt 0.156250 0.500000
vt 0.562500 0.500000
vt 1.000000 0.500000
vt 0.968750 0.500000
vt 0.125000 0.500000
vt 0.531250 0.500000
vt 0.937500 0.500000
vt 0.093750 0.500000
vt 0.500000 0.500000
vt 0.906250 0.500000
vt 0.062500 0.500000
vt 0.468750 0.500000
vt 0.875000 0.500000
vt 0.031250 0.500000
vt 0.437500 0.500000
vt 0.843750 0.500000
vt 0.000000 0.500000
vt 0.406250 0.500000
vt 0.812500 0.500000
vt 0.375000 0.500000
vt 0.781250 0.500000
vt 0.343750 0.500000
vt 0.750000 0.500000
vt 0.312500 0.500000
vt 0.718750 0.500000
vt 0.281250 0.500000
vt 0.812500 0.500000
vt 0.875000 0.500000
vt 0.968750 0.500000
vt 0.218750 0.500000
vt 0.750000 0.500000
vt 0.437500 0.500000
vt 0.468750 0.500000
vt 0.937500 0.500000
vt 0.593750 0.500000
vt 0.625000 0.500000
vt 0.187500 0.500000
vt 0.218750 0.500000
vt 0.656250 0.500000
vt 0.281250 0.500000
vt 0.343750 0.500000
vt 0.312500 0.500000
vt 0.312500 0.500000
vt 0.375000 0.500000
vt 0.375000 0.500000
vt 0.406250 0.500000
s 0
usemtl Material.007
f 11/1/1 12/2/1 44/2/1 43/1/1
f 25/3/2 26/4/2 58/4/2 57/3/2
f 12/2/3 13/5/3 45/5/3 44/2/3
f 26/4/4 27/6/4 59/6/4 58/4/4
f 13/5/5 14/7/5 46/7/5 45/5/5
f 27/6/6 28/8/6 60/8/6 59/6/6
f 14/7/7 15/9/7 47/9/7 46/7/7
f 1/10/8 2/11/8 34/11/8 33/10/8
f 28/8/9 29/12/9 61/12/9 60/8/9
f 15/9/10 16/13/10 48/13/10 47/9/10
f 2/11/11 3/14/11 35/14/11 34/11/11
f 29/12/12 30/15/12 62/15/12 61/12/12
f 16/13/13 17/16/13 49/16/13 48/13/13
f 3/14/14 4/17/14 36/17/14 35/14/14
f 30/15/15 31/18/15 63/18/15 62/15/15
f 17/16/16 18/19/16 50/19/16 49/16/16
f 4/17/17 5/20/17 37/20/17 36/17/17
f 31/18/18 32/21/18 64/21/18 63/18/18
f 18/19/19 19/22/19 51/22/19 50/19/19
f 5/20/20 6/23/20 38/23/20 37/20/20
f 32/21/21 1/24/21 33/24/21 64/21/21
f 19/22/22 20/25/22 52/25/22 51/22/22
f 6/23/23 7/26/23 39/26/23 38/23/23
f 20/25/24 21/27/24 53/27/24 52/25/24
f 7/26/25 8/28/25 40/28/25 39/26/25
f 21/27/26 22/29/26 54/29/26 53/27/26
f 8/28/27 9/30/27 41/30/27 40/28/27
f 22/29/28 23/31/28 55/31/28 54/29/28
f 9/30/29 10/32/29 42/32/29 41/30/29
f 23/31/30 24/33/30 56/33/30 55/31/30
f 10/32/31 11/1/31 43/1/31 42/32/31
f 24/33/32 25/3/32 57/3/32 56/33/32
f 85/25/24 67/27/24 105/27/24 103/25/24
f 84/23/23 66/34/23 104/26/23 102/23/23
f 83/21/21 76/24/21 106/24/21 101/21/21
f 82/35/20 84/23/20 102/23/20 100/20/20
f 80/17/17 82/35/17 100/20/17 98/17/17
f 79/15/15 81/18/15 99/18/15 97/15/15
f 78/14/14 80/17/14 98/17/14 96/14/14
f 75/36/11 78/14/11 96/14/11 94/11/11
f 74/8/9 77/12/9 95/12/9 93/8/9
f 76/10/8 75/36/8 94/11/8 106/10/8
f 73/6/6 74/8/6 93/8/6 92/6/6
f 72/37/4 73/6/4 92/6/4 91/4/4
f 71/3/2 72/37/2 91/4/2 90/3/2
f 69/32/31 70/1/31 89/1/31 88/32/31
f 68/30/29 69/32/29 88/32/29 87/38/29
f 65/28/27 68/30/27 87/38/27 86/28/27
f 66/34/25 65/28/25 86/28/25 104/26/25
f 109/39/22 110/25/22 114/25/22 113/22/22
f 108/19/19 109/39/19 113/22/19 112/19/19
f 107/16/16 108/19/16 112/19/16 111/16/16
f 135/16/33 118/19/33 156/40/33 153/16/33
f 134/15/34 116/18/34 155/18/34 152/15/34
f 133/14/35 115/17/35 154/17/35 151/41/35
f 131/42/36 132/9/36 150/9/36 149/7/36
f 129/5/37 131/42/37 149/7/37 147/43/37
f 128/4/38 130/44/38 148/6/38 146/45/38
f 127/46/39 129/5/39 147/43/39 145/2/39
f 125/1/40 127/46/40 145/2/40 143/1/40
f 124/47/41 126/3/41 144/3/41 142/47/41
f 123/32/42 125/1/42 143/1/42 141/32/42
f 121/48/43 122/49/43 140/50/43 139/29/43
f 120/51/44 121/48/44 139/29/44 138/52/44
f 119/53/45 120/51/45 138/52/45 137/25/45
f 118/19/46 117/22/46 136/22/46 156/40/46
