# Blender 4.2.1 LTS
# www.blender.org
mtllib WrenchMask_Grid.mtl
o wrenchmaskf_grid
v 3.324764 5.887939 -0.329538
v 3.370347 5.343390 -0.445019
v 3.438572 5.759632 -0.594817
v 3.449893 6.240026 -0.611977
v 3.382876 6.708441 -0.425481
v 3.169563 5.995861 -0.006269
v 3.249165 7.081493 -0.131496
v 2.931575 6.063002 0.432973
v 3.060405 7.375927 0.273014
v 2.653476 6.108250 0.873010
v 2.834959 7.584506 0.686898
v 2.591201 7.700002 1.009006
v 2.377942 6.150489 1.198665
v 2.338285 7.768951 1.260007
v 1.600616 7.928564 1.710323
v 1.119547 6.760878 1.928022
v 1.357054 6.613832 1.862402
v 1.837724 7.895043 1.610687
v 1.611874 6.463868 1.761719
v 2.085372 7.837903 1.460575
v 1.859565 6.324817 1.623745
v 2.111222 6.214439 1.439167
v 2.164683 4.634349 1.421390
v 2.471992 4.665363 1.092188
v 2.802745 4.783444 0.625997
v 3.089959 4.943596 0.152022
v 3.266651 5.100811 -0.200528
v 1.884159 4.693298 1.651390
v 1.633759 4.845103 1.819980
v 1.386023 5.066063 1.945817
v 1.113492 5.332476 2.047550
v 0.870657 5.609240 2.105671
v 0.712019 5.861263 2.100676
v 0.923798 6.891155 1.960806
v 0.591765 6.072276 2.079059
v 0.744970 6.998218 1.975977
v 0.464086 6.226011 2.087322
v 0.558222 7.075602 1.988769
v 0.313183 6.336267 2.114822
v 0.358478 7.130731 2.002518
v 0.123248 6.416831 2.150920
v -0.530878 7.130731 2.002518
v -0.576172 7.958567 1.923280
v -0.824758 7.958567 1.923281
v -0.313057 7.171014 2.020569
v -0.330467 7.958567 1.923281
v -0.086200 7.187446 2.030667
v -0.086200 7.958567 1.923280
v 0.158066 7.958567 1.923282
v 0.140657 7.171014 2.020568
v 0.403771 7.958567 1.923281
v 0.652357 7.958567 1.923282
v 0.898176 7.957529 1.905960
v 1.135579 7.954421 1.853999
v 1.368436 7.945886 1.783438
v -0.086200 6.449697 2.171118
v -0.295649 6.416834 2.150919
v -0.485583 6.336266 2.114821
v -0.730623 7.075602 1.988769
v -2.763601 7.700002 1.009006
v -2.825876 6.108250 0.873010
v -2.550342 6.150490 1.198665
v -2.510686 7.768950 1.260008
v -2.283623 6.214439 1.439167
v -2.031965 6.324815 1.623745
v -2.257772 7.837903 1.460575
v -1.784275 6.463868 1.761719
v -2.010125 7.895044 1.610686
v -1.529453 6.613833 1.862402
v -1.773016 7.928564 1.710323
v -1.291947 6.760877 1.928023
v -1.540837 7.945886 1.783439
v -1.096198 6.891155 1.960806
v -1.307979 7.954420 1.854000
v -0.917370 6.998217 1.975977
v -1.070576 7.957529 1.905961
v -0.636486 6.226011 2.087323
v -0.764165 6.072276 2.079059
v -0.884419 5.861263 2.100676
v -1.043058 5.609240 2.105671
v -1.285892 5.332476 2.047550
v -1.558424 5.066062 1.945817
v -1.806160 4.845103 1.819980
v -2.056559 4.693299 1.651390
v -2.337082 4.634350 1.421390
v -2.644392 4.665363 1.092189
v -2.975145 4.783444 0.625998
v -3.103975 6.063003 0.432974
v -3.262359 4.943598 0.152022
v -3.341963 5.995861 -0.006269
v -3.439051 5.100811 -0.200527
v -3.497164 5.887939 -0.329538
v -3.542747 5.343390 -0.445018
v -3.610972 5.759633 -0.594818
v -3.622293 6.240026 -0.611977
v -3.555276 6.708441 -0.425481
v -3.421565 7.081492 -0.131495
v -3.232804 7.375926 0.273014
v -3.007359 7.584506 0.686897
vn 0.9105 -0.0066 0.4134
vn -0.8011 0.4665 0.3750
vn -0.9060 0.1538 0.3943
vn -0.9159 -0.1240 0.3817
vn -0.8381 -0.4163 0.3525
vn 0.8900 -0.0042 0.4560
vn -0.6285 -0.6831 0.3719
vn 0.8621 -0.0093 0.5066
vn -0.3237 -0.8675 0.3777
vn 0.8068 -0.0136 0.5907
vn -0.0494 -0.9259 0.3745
vn 0.1077 -0.9152 0.3884
vn 0.7177 -0.0051 0.6963
vn 0.1286 -0.8979 0.4211
vn 0.3505 0.0427 0.9356
vn 0.2586 0.0743 0.9631
vn 0.3485 0.0571 0.9356
vn 0.4573 0.0211 0.8891
vn 0.4465 0.0367 0.8941
vn 0.1006 -0.8912 0.4423
vn 0.5478 0.0189 0.8364
vn 0.6310 0.0068 0.7758
vn 0.4013 0.8358 0.3746
vn 0.2661 0.8867 0.3781
vn 0.1548 0.9151 0.3724
vn 0.0137 0.9276 0.3733
vn -0.4034 0.8314 0.3821
vn 0.5679 0.7408 0.3588
vn 0.6893 0.6284 0.3605
vn 0.7193 0.5762 0.3881
vn 0.7225 0.5560 0.4109
vn 0.7448 0.5085 0.4320
vn 0.7446 0.4672 0.4768
vn 0.1745 0.0805 0.9814
vn 0.6934 0.5071 0.5119
vn 0.1216 0.0793 0.9894
vn 0.6199 0.6015 0.5039
vn 0.1017 0.0881 0.9909
vn 0.4930 0.7152 0.4955
vn 0.1014 0.1124 0.9885
vn 0.3002 0.8077 0.5074
vn -0.1014 0.1124 0.9885
vn -0.0084 0.1057 0.9944
vn -0.0440 0.0776 0.9960
vn -0.0782 0.1405 0.9870
vn -0.0048 0.1287 0.9917
vn -0.0000 0.1546 0.9880
vn -0.0000 -0.8730 0.4877
vn 0.0048 0.1287 0.9917
vn 0.0782 0.1405 0.9870
vn 0.0084 0.1057 0.9944
vn 0.0440 0.0776 0.9960
vn 0.1513 0.0498 0.9872
vn 0.2523 0.0399 0.9668
vn 0.2932 0.0483 0.9548
vn -0.0000 0.8496 0.5274
vn -0.3001 0.8077 0.5074
vn -0.4930 0.7152 0.4955
vn -0.1017 0.0881 0.9909
vn -0.1077 -0.9152 0.3884
vn -0.8068 -0.0136 0.5907
vn -0.7177 -0.0051 0.6963
vn -0.1287 -0.8979 0.4210
vn -0.6310 0.0068 0.7758
vn -0.5478 0.0189 0.8364
vn -0.1006 -0.8912 0.4423
vn -0.4465 0.0367 0.8941
vn -0.4573 0.0211 0.8891
vn -0.3485 0.0571 0.9356
vn -0.3505 0.0427 0.9356
vn -0.2586 0.0743 0.9631
vn -0.2932 0.0483 0.9548
vn -0.1745 0.0805 0.9814
vn -0.2523 0.0399 0.9668
vn -0.1216 0.0793 0.9894
vn -0.1513 0.0498 0.9872
vn -0.6198 0.6016 0.5039
vn -0.6934 0.5071 0.5119
vn -0.1345 0.1174 0.9839
vn -0.7448 0.5085 0.4320
vn -0.7225 0.5560 0.4109
vn -0.7193 0.5762 0.3881
vn -0.6894 0.6284 0.3605
vn -0.5679 0.7408 0.3588
vn -0.4014 0.8358 0.3746
vn -0.2661 0.8867 0.3780
vn -0.1548 0.9151 0.3724
vn -0.8621 -0.0093 0.5066
vn -0.0137 0.9276 0.3733
vn -0.8900 -0.0042 0.4560
vn 0.4034 0.8315 0.3820
vn -0.9105 -0.0066 0.4134
vn 0.8011 0.4665 0.3750
vn -0.9177 -0.0074 0.3973
vn 0.9159 -0.1239 0.3817
vn 0.8381 -0.4163 0.3525
vn 0.6286 -0.6831 0.3719
vn 0.3238 -0.8675 0.3777
vn 0.0495 -0.9259 0.3746
vt -0.415702 1.105276
vt -0.280836 1.144879
vt -0.387311 1.183297
vt -0.507981 1.182704
vt -0.614827 1.132990
vt -0.438031 1.008795
vt -0.704107 1.042866
vt -0.448237 0.875394
vt -0.772077 0.921042
vt -0.452577 0.735931
vt -0.818088 0.792776
vt -0.841491 0.683323
vt -0.457312 0.621262
vt -0.853881 0.587706
vt -0.883294 0.353917
vt -0.592977 0.222005
vt -0.558142 0.288822
vt -0.877598 0.423022
vt -0.523428 0.363382
vt -0.866855 0.500945
vt -0.492011 0.440537
vt -0.468453 0.524944
vt -0.073133 0.559200
vt -0.087067 0.679086
vt -0.124397 0.829746
vt -0.171956 0.974724
vt -0.216576 1.077561
vt -0.083024 0.462182
vt -0.117167 0.380128
vt -0.169258 0.303742
vt -0.232991 0.223727
vt -0.300436 0.154737
vt -0.363666 0.111425
vt -0.624756 0.168078
vt -0.417168 0.079565
vt -0.651280 0.119679
vt -0.455428 0.044933
vt -0.670352 0.069447
vt -0.482124 0.003298
vt -0.683790 0.015492
vt -0.500930 -0.049569
vt -0.885457 0.027686
vt -0.885275 0.093962
vt -0.693413 -0.044079
vt -0.885897 -0.038590
vt -0.701129 -0.106458
vt -0.886467 -0.104864
vt -0.885392 0.159793
vt -0.885845 0.224731
vt -0.885518 0.289273
vt -0.515791 -0.108052
s 1
usemtl gridf
f 1/1/1 2/2/2 3/3/3
f 1/1/1 3/3/3 4/4/4
f 1/1/1 4/4/4 5/5/5
f 5/5/5 6/6/6 1/1/1
f 5/5/5 7/7/7 6/6/6
f 8/8/8 6/6/6 7/7/7
f 8/8/8 7/7/7 9/9/9
f 9/9/9 10/10/10 8/8/8
f 9/9/9 11/11/11 10/10/10
f 10/10/10 11/11/11 12/12/12
f 10/10/10 12/12/12 13/13/13
f 13/13/13 12/12/12 14/14/14
f 15/15/15 16/16/16 17/17/17
f 17/17/17 18/18/18 15/15/15
f 17/17/17 19/19/19 18/18/18
f 20/20/20 18/18/18 19/19/19
f 20/20/20 19/19/19 21/21/21
f 21/21/21 14/14/14 20/20/20
f 21/21/21 22/22/22 14/14/14
f 13/13/13 14/14/14 22/22/22
f 22/22/22 23/23/23 13/13/13
f 13/13/13 23/23/23 24/24/24
f 13/13/13 24/24/24 10/10/10
f 10/10/10 24/24/24 25/25/25
f 10/10/10 25/25/25 8/8/8
f 8/8/8 25/25/25 26/26/26
f 8/8/8 26/26/26 6/6/6
f 6/6/6 26/26/26 27/27/27
f 6/6/6 27/27/27 1/1/1
f 1/1/1 27/27/27 2/2/2
f 22/22/22 28/28/28 23/23/23
f 29/29/29 28/28/28 22/22/22
f 29/29/29 22/22/22 21/21/21
f 21/21/21 30/30/30 29/29/29
f 21/21/21 19/19/19 30/30/30
f 31/31/31 30/30/30 19/19/19
f 31/31/31 19/19/19 17/17/17
f 17/17/17 32/32/32 31/31/31
f 17/17/17 16/16/16 32/32/32
f 33/33/33 32/32/32 16/16/16
f 33/33/33 16/16/16 34/34/34
f 34/34/34 35/35/35 33/33/33
f 34/34/34 36/36/36 35/35/35
f 37/37/37 35/35/35 36/36/36
f 37/37/37 36/36/36 38/38/38
f 38/38/38 39/39/39 37/37/37
f 38/38/38 40/40/40 39/39/39
f 41/41/41 39/39/39 40/40/40
f 42/40/42 43/42/43 44/43/44
f 45/44/45 43/42/43 42/40/42
f 45/44/45 46/45/46 43/42/43
f 47/46/47 46/45/46 45/44/45
f 47/46/47 48/47/48 46/45/46
f 49/45/49 48/47/48 47/46/47
f 49/45/49 47/46/47 50/44/50
f 50/44/50 51/42/51 49/45/49
f 50/44/50 40/40/40 51/42/51
f 52/43/52 51/42/51 40/40/40
f 52/43/52 40/40/40 38/38/38
f 38/38/38 53/48/53 52/43/52
f 38/38/38 36/36/36 53/48/53
f 54/49/54 53/48/53 36/36/36
f 54/49/54 36/36/36 34/34/34
f 34/34/34 55/50/55 54/49/54
f 34/34/34 16/16/16 55/50/55
f 15/15/15 55/50/55 16/16/16
f 41/41/41 40/40/40 50/44/50
f 50/44/50 56/51/56 41/41/41
f 50/44/50 47/46/47 56/51/56
f 45/44/45 56/51/56 47/46/47
f 45/44/45 57/41/57 56/51/56
f 42/40/42 57/41/57 45/44/45
f 42/40/42 58/39/58 57/41/57
f 59/38/59 58/39/58 42/40/42
f 60/12/60 61/10/61 62/13/62
f 62/13/62 63/14/63 60/12/60
f 62/13/62 64/22/64 63/14/63
f 65/21/65 63/14/63 64/22/64
f 65/21/65 66/20/66 63/14/63
f 67/19/67 66/20/66 65/21/65
f 67/19/67 68/18/68 66/20/66
f 69/17/69 68/18/68 67/19/67
f 69/17/69 70/15/70 68/18/68
f 71/16/71 70/15/70 69/17/69
f 71/16/71 72/50/72 70/15/70
f 73/34/73 72/50/72 71/16/71
f 73/34/73 74/49/74 72/50/72
f 75/36/75 74/49/74 73/34/73
f 75/36/75 76/48/76 74/49/74
f 59/38/59 76/48/76 75/36/75
f 59/38/59 44/43/44 76/48/76
f 42/40/42 44/43/44 59/38/59
f 59/38/59 77/37/77 58/39/58
f 75/36/75 77/37/77 59/38/59
f 75/36/75 78/35/78 77/37/77
f 73/34/73 78/35/78 75/36/75
f 73/34/73 79/33/79 78/35/78
f 71/16/71 79/33/79 73/34/73
f 71/16/71 80/32/80 79/33/79
f 69/17/69 80/32/80 71/16/71
f 69/17/69 81/31/81 80/32/80
f 67/19/67 81/31/81 69/17/69
f 67/19/67 82/30/82 81/31/81
f 65/21/65 82/30/82 67/19/67
f 65/21/65 83/29/83 82/30/82
f 64/22/64 83/29/83 65/21/65
f 64/22/64 84/28/84 83/29/83
f 85/23/85 84/28/84 64/22/64
f 85/23/85 64/22/64 62/13/62
f 62/13/62 86/24/86 85/23/85
f 62/13/62 61/10/61 86/24/86
f 87/25/87 86/24/86 61/10/61
f 87/25/87 61/10/61 88/8/88
f 88/8/88 89/26/89 87/25/87
f 88/8/88 90/6/90 89/26/89
f 91/27/91 89/26/89 90/6/90
f 91/27/91 90/6/90 92/1/92
f 92/1/92 93/2/93 91/27/91
f 92/1/92 94/3/94 93/2/93
f 92/1/92 95/4/95 94/3/94
f 92/1/92 96/5/96 95/4/95
f 90/6/90 96/5/96 92/1/92
f 90/6/90 97/7/97 96/5/96
f 88/8/88 97/7/97 90/6/90
f 88/8/88 98/9/98 97/7/97
f 61/10/61 98/9/98 88/8/88
f 61/10/61 99/11/99 98/9/98
f 60/12/60 99/11/99 61/10/61
