# Blender 4.2.1 LTS
# www.blender.org
mtllib WrenchMask_Part3.mtl
o wrenchmaskf_wrenchmask_ref.003
v 3.249166 7.048121 -0.318954
v 3.382876 6.675068 -0.561625
v 3.449893 6.240026 -0.715054
v 3.438572 5.759632 -0.793667
v 3.370347 5.343390 -0.643867
v 3.266651 5.100812 -0.399376
v 3.089959 4.943596 -0.046826
v 2.802745 4.783444 0.427149
v 2.471992 4.665363 0.893341
v 2.164683 4.634349 1.222542
v 1.884159 4.693298 1.452541
v 1.633759 4.845103 1.621132
v 1.386023 5.066064 1.746969
v 1.113492 5.332476 1.848702
v 0.870657 5.609240 1.906825
v 0.712019 5.861263 1.901827
v 0.591765 6.072276 1.880211
v 0.464086 6.226011 1.888474
v -0.086200 7.925194 1.735821
v 3.060404 7.342556 0.085554
v 2.834959 7.551135 0.499438
v 2.085372 7.804530 1.273116
v 2.338285 7.735579 1.072549
v 2.591201 7.666630 0.821545
v -3.232804 7.342556 0.085554
v -3.007359 7.551136 0.499437
v -2.763601 7.666630 0.821547
v -2.510686 7.735579 1.072548
v -2.257772 7.804530 1.273116
v -3.622293 6.240026 -0.810825
v -3.555276 6.675069 -0.561625
v -3.421566 7.048121 -0.318955
v -2.975145 4.783444 0.427150
v -3.262359 4.943598 -0.046826
v -3.439051 5.100811 -0.399375
v -3.542747 5.343390 -0.643866
v -1.806160 4.845103 1.621133
v -2.056559 4.693298 1.452541
v -2.337082 4.634350 1.222542
v -2.644392 4.665363 0.893341
v -1.558424 5.066062 1.746968
v -1.285892 5.332476 1.848702
v -1.043058 5.609240 1.906824
v -0.485583 6.336266 1.915974
v -0.295649 6.416834 1.952071
v -0.086200 6.449697 1.972271
v 0.123248 6.416831 1.952071
v 0.313183 6.336267 1.915974
v -0.764165 6.072276 1.880212
v -0.636486 6.226011 1.888474
v 3.324764 5.887939 -0.528386
v 3.169563 5.995860 -0.205118
v 2.931575 6.063002 0.234125
v 2.653476 6.108250 0.674163
v 2.377942 6.150489 0.999817
v 1.600616 7.895194 1.522863
v 1.119547 6.760878 1.729174
v 1.357054 6.613832 1.663554
v 1.837724 7.861671 1.423227
v 1.611874 6.463868 1.562871
v 1.859565 6.324816 1.424897
v 2.111222 6.214439 1.240318
v 0.923798 6.891155 1.761957
v 0.744970 6.998218 1.777128
v 0.558222 7.075603 1.789921
v 0.358478 7.130731 1.803671
v -0.530878 7.130731 1.803672
v -0.576172 7.925194 1.735820
v -0.824758 7.925193 1.735821
v -0.313057 7.171013 1.821720
v -0.330467 7.925194 1.735822
v -0.086200 7.187446 1.831819
v 0.158066 7.925193 1.735822
v 0.140657 7.171014 1.821721
v 0.403771 7.925193 1.735820
v 0.652357 7.925193 1.735821
v 0.898176 7.924157 1.718500
v 1.135579 7.921049 1.666540
v 1.368436 7.912514 1.595979
v -0.730623 7.075602 1.789921
v -2.825876 6.108250 0.674162
v -2.550342 6.150489 0.999817
v -2.283623 6.214439 1.240318
v -2.031965 6.324816 1.424898
v -1.784275 6.463868 1.562870
v -2.010125 7.861672 1.423227
v -1.529453 6.613833 1.663555
v -1.773016 7.895194 1.522862
v -1.291947 6.760877 1.729175
v -1.540837 7.912514 1.595979
v -1.096198 6.891155 1.761957
v -1.307979 7.921049 1.666539
v -0.917370 6.998217 1.777130
v -1.070576 7.924157 1.718501
v -0.884419 5.861263 1.901828
v -3.103975 6.063002 0.234125
v -3.341963 5.995861 -0.205118
v -3.497164 5.887940 -0.528386
v -3.610972 5.759633 -0.793666
vn 0.9013 -0.0346 0.4319
vn -0.8011 0.4665 0.3750
vn -0.9038 0.1116 0.4131
vn -0.9581 -0.1424 0.2483
vn -0.8754 -0.3749 0.3052
vn 0.8866 -0.0125 0.4624
vn -0.6393 -0.6632 0.3892
vn 0.8619 -0.0119 0.5069
vn -0.3280 -0.8670 0.3752
vn 0.8066 -0.0162 0.5909
vn -0.0537 -0.9266 0.3721
vn 0.1036 -0.9169 0.3853
vn 0.7175 -0.0078 0.6965
vn 0.1246 -0.9002 0.4174
vn 0.3497 0.0354 0.9362
vn 0.2568 0.0712 0.9638
vn 0.3470 0.0541 0.9363
vn 0.4563 0.0143 0.8897
vn 0.4452 0.0338 0.8948
vn 0.0968 -0.8938 0.4379
vn 0.5469 0.0161 0.8370
vn 0.6305 0.0041 0.7762
vn 0.4013 0.8358 0.3746
vn 0.2661 0.8867 0.3781
vn 0.1548 0.9151 0.3724
vn 0.0137 0.9276 0.3733
vn -0.4034 0.8314 0.3821
vn 0.5679 0.7408 0.3588
vn 0.6893 0.6284 0.3605
vn 0.7193 0.5762 0.3881
vn 0.7225 0.5560 0.4109
vn 0.7448 0.5085 0.4320
vn 0.7446 0.4672 0.4768
vn 0.1726 0.0769 0.9820
vn 0.6934 0.5071 0.5119
vn 0.1197 0.0747 0.9900
vn 0.6199 0.6015 0.5039
vn 0.1001 0.0829 0.9915
vn 0.4930 0.7152 0.4955
vn 0.1002 0.1072 0.9892
vn 0.3002 0.8077 0.5074
vn -0.1002 0.1072 0.9892
vn -0.0086 0.0957 0.9954
vn -0.0442 0.0670 0.9968
vn -0.0774 0.1355 0.9877
vn -0.0049 0.1194 0.9928
vn -0.0000 0.1498 0.9887
vn -0.0000 -0.8773 0.4799
vn 0.0049 0.1194 0.9928
vn 0.0774 0.1355 0.9877
vn 0.0086 0.0957 0.9954
vn 0.0442 0.0670 0.9968
vn 0.1513 0.0391 0.9877
vn 0.2518 0.0303 0.9673
vn 0.2925 0.0401 0.9554
vn -0.0000 0.8496 0.5274
vn -0.3001 0.8077 0.5074
vn -0.4930 0.7152 0.4955
vn -0.1001 0.0829 0.9915
vn -0.1036 -0.9169 0.3854
vn -0.8066 -0.0162 0.5909
vn -0.7175 -0.0078 0.6965
vn -0.1247 -0.9002 0.4173
vn -0.6305 0.0041 0.7762
vn -0.5469 0.0161 0.8370
vn -0.0968 -0.8938 0.4379
vn -0.4452 0.0338 0.8948
vn -0.4563 0.0143 0.8897
vn -0.3470 0.0541 0.9363
vn -0.3497 0.0354 0.9362
vn -0.2568 0.0712 0.9638
vn -0.2925 0.0401 0.9554
vn -0.1726 0.0769 0.9820
vn -0.2518 0.0303 0.9673
vn -0.1197 0.0747 0.9900
vn -0.1513 0.0391 0.9877
vn -0.6198 0.6016 0.5039
vn -0.6934 0.5071 0.5119
vn -0.1345 0.1174 0.9839
vn -0.7448 0.5085 0.4320
vn -0.7225 0.5560 0.4109
vn -0.7193 0.5762 0.3881
vn -0.6894 0.6284 0.3605
vn -0.5679 0.7408 0.3588
vn -0.4014 0.8358 0.3746
vn -0.2661 0.8867 0.3780
vn -0.1548 0.9151 0.3724
vn -0.8619 -0.0119 0.5069
vn -0.0137 0.9276 0.3733
vn -0.8866 -0.0125 0.4624
vn 0.4034 0.8315 0.3820
vn -0.9114 -0.0176 0.4112
vn 0.8011 0.4665 0.3750
vn -0.9177 -0.0074 0.3973
vn 0.9011 -0.1548 0.4051
vn 0.8628 -0.4184 0.2840
vn 0.6393 -0.6632 0.3892
vn 0.3280 -0.8670 0.3752
vn 0.0537 -0.9266 0.3721
vt -0.415702 1.105276
vt -0.280836 1.144879
vt -0.387311 1.183297
vt -0.507981 1.182704
vt -0.614827 1.132990
vt -0.438031 1.008795
vt -0.704107 1.042866
vt -0.448237 0.875394
vt -0.772077 0.921042
vt -0.452577 0.735931
vt -0.818088 0.792776
vt -0.841491 0.683323
vt -0.457312 0.621262
vt -0.853881 0.587706
vt -0.883294 0.353917
vt -0.592977 0.222005
vt -0.558142 0.288822
vt -0.877598 0.423022
vt -0.523428 0.363382
vt -0.866855 0.500945
vt -0.492011 0.440537
vt -0.468453 0.524944
vt -0.073133 0.559200
vt -0.087067 0.679086
vt -0.124397 0.829746
vt -0.171956 0.974724
vt -0.216576 1.077561
vt -0.083024 0.462182
vt -0.117167 0.380128
vt -0.169258 0.303742
vt -0.232991 0.223727
vt -0.300436 0.154737
vt -0.363666 0.111425
vt -0.624756 0.168078
vt -0.417168 0.079565
vt -0.651280 0.119679
vt -0.455428 0.044933
vt -0.670352 0.069447
vt -0.482124 0.003298
vt -0.683790 0.015492
vt -0.500930 -0.049569
vt -0.885457 0.027686
vt -0.885275 0.093962
vt -0.693413 -0.044079
vt -0.885897 -0.038590
vt -0.701129 -0.106458
vt -0.886467 -0.104864
vt -0.885392 0.159793
vt -0.885845 0.224731
vt -0.885518 0.289273
vt -0.515791 -0.108052
s 1
usemtl glassesf
f 51/1/1 5/2/2 4/3/3
f 51/1/1 4/3/3 3/4/4
f 51/1/1 3/4/4 2/5/5
f 2/5/5 52/6/6 51/1/1
f 2/5/5 1/7/7 52/6/6
f 53/8/8 52/6/6 1/7/7
f 53/8/8 1/7/7 20/9/9
f 20/9/9 54/10/10 53/8/8
f 20/9/9 21/11/11 54/10/10
f 54/10/10 21/11/11 24/12/12
f 54/10/10 24/12/12 55/13/13
f 55/13/13 24/12/12 23/14/14
f 56/15/15 57/16/16 58/17/17
f 58/17/17 59/18/18 56/15/15
f 58/17/17 60/19/19 59/18/18
f 22/20/20 59/18/18 60/19/19
f 22/20/20 60/19/19 61/21/21
f 61/21/21 23/14/14 22/20/20
f 61/21/21 62/22/22 23/14/14
f 55/13/13 23/14/14 62/22/22
f 62/22/22 10/23/23 55/13/13
f 55/13/13 10/23/23 9/24/24
f 55/13/13 9/24/24 54/10/10
f 54/10/10 9/24/24 8/25/25
f 54/10/10 8/25/25 53/8/8
f 53/8/8 8/25/25 7/26/26
f 53/8/8 7/26/26 52/6/6
f 52/6/6 7/26/26 6/27/27
f 52/6/6 6/27/27 51/1/1
f 51/1/1 6/27/27 5/2/2
f 62/22/22 11/28/28 10/23/23
f 12/29/29 11/28/28 62/22/22
f 12/29/29 62/22/22 61/21/21
f 61/21/21 13/30/30 12/29/29
f 61/21/21 60/19/19 13/30/30
f 14/31/31 13/30/30 60/19/19
f 14/31/31 60/19/19 58/17/17
f 58/17/17 15/32/32 14/31/31
f 58/17/17 57/16/16 15/32/32
f 16/33/33 15/32/32 57/16/16
f 16/33/33 57/16/16 63/34/34
f 63/34/34 17/35/35 16/33/33
f 63/34/34 64/36/36 17/35/35
f 18/37/37 17/35/35 64/36/36
f 18/37/37 64/36/36 65/38/38
f 65/38/38 48/39/39 18/37/37
f 65/38/38 66/40/40 48/39/39
f 47/41/41 48/39/39 66/40/40
f 67/40/42 68/42/43 69/43/44
f 70/44/45 68/42/43 67/40/42
f 70/44/45 71/45/46 68/42/43
f 72/46/47 71/45/46 70/44/45
f 72/46/47 19/47/48 71/45/46
f 73/45/49 19/47/48 72/46/47
f 73/45/49 72/46/47 74/44/50
f 74/44/50 75/42/51 73/45/49
f 74/44/50 66/40/40 75/42/51
f 76/43/52 75/42/51 66/40/40
f 76/43/52 66/40/40 65/38/38
f 65/38/38 77/48/53 76/43/52
f 65/38/38 64/36/36 77/48/53
f 78/49/54 77/48/53 64/36/36
f 78/49/54 64/36/36 63/34/34
f 63/34/34 79/50/55 78/49/54
f 63/34/34 57/16/16 79/50/55
f 56/15/15 79/50/55 57/16/16
f 47/41/41 66/40/40 74/44/50
f 74/44/50 46/51/56 47/41/41
f 74/44/50 72/46/47 46/51/56
f 70/44/45 46/51/56 72/46/47
f 70/44/45 45/41/57 46/51/56
f 67/40/42 45/41/57 70/44/45
f 67/40/42 44/39/58 45/41/57
f 80/38/59 44/39/58 67/40/42
f 27/12/60 81/10/61 82/13/62
f 82/13/62 28/14/63 27/12/60
f 82/13/62 83/22/64 28/14/63
f 84/21/65 28/14/63 83/22/64
f 84/21/65 29/20/66 28/14/63
f 85/19/67 29/20/66 84/21/65
f 85/19/67 86/18/68 29/20/66
f 87/17/69 86/18/68 85/19/67
f 87/17/69 88/15/70 86/18/68
f 89/16/71 88/15/70 87/17/69
f 89/16/71 90/50/72 88/15/70
f 91/34/73 90/50/72 89/16/71
f 91/34/73 92/49/74 90/50/72
f 93/36/75 92/49/74 91/34/73
f 93/36/75 94/48/76 92/49/74
f 80/38/59 94/48/76 93/36/75
f 80/38/59 69/43/44 94/48/76
f 67/40/42 69/43/44 80/38/59
f 80/38/59 50/37/77 44/39/58
f 93/36/75 50/37/77 80/38/59
f 93/36/75 49/35/78 50/37/77
f 91/34/73 49/35/78 93/36/75
f 91/34/73 95/33/79 49/35/78
f 89/16/71 95/33/79 91/34/73
f 89/16/71 43/32/80 95/33/79
f 87/17/69 43/32/80 89/16/71
f 87/17/69 42/31/81 43/32/80
f 85/19/67 42/31/81 87/17/69
f 85/19/67 41/30/82 42/31/81
f 84/21/65 41/30/82 85/19/67
f 84/21/65 37/29/83 41/30/82
f 83/22/64 37/29/83 84/21/65
f 83/22/64 38/28/84 37/29/83
f 39/23/85 38/28/84 83/22/64
f 39/23/85 83/22/64 82/13/62
f 82/13/62 40/24/86 39/23/85
f 82/13/62 81/10/61 40/24/86
f 33/25/87 40/24/86 81/10/61
f 33/25/87 81/10/61 96/8/88
f 96/8/88 34/26/89 33/25/87
f 96/8/88 97/6/90 34/26/89
f 35/27/91 34/26/89 97/6/90
f 35/27/91 97/6/90 98/1/92
f 98/1/92 36/2/93 35/27/91
f 98/1/92 99/3/94 36/2/93
f 98/1/92 30/4/95 99/3/94
f 98/1/92 31/5/96 30/4/95
f 97/6/90 31/5/96 98/1/92
f 97/6/90 32/7/97 31/5/96
f 96/8/88 32/7/97 97/6/90
f 96/8/88 25/9/98 32/7/97
f 81/10/61 25/9/98 96/8/88
f 81/10/61 26/11/99 25/9/98
f 27/12/60 26/11/99 81/10/61
